<mxfile host="65bd71144e">
    <diagram id="3MX-rkCQ5_7BRyolVT3t" name="Customer">
        <mxGraphModel dx="1367" dy="930" grid="0" gridSize="10" guides="1" tooltips="1" connect="1" arrows="1" fold="1" page="1" pageScale="1" pageWidth="850" pageHeight="1100" math="0" shadow="0">
            <root>
                <mxCell id="0"/>
                <mxCell id="1" parent="0"/>
                <mxCell id="7" value="" style="ellipse;html=1;shape=startState;fillColor=#000000;strokeColor=#ff0000;" parent="1" vertex="1">
                    <mxGeometry x="343" y="78" width="30" height="30" as="geometry"/>
                </mxCell>
                <mxCell id="8" value="" style="edgeStyle=orthogonalEdgeStyle;html=1;verticalAlign=bottom;endArrow=open;endSize=8;strokeColor=#ff0000;" parent="1" source="7" target="19" edge="1">
                    <mxGeometry relative="1" as="geometry">
                        <mxPoint x="383" y="138" as="targetPoint"/>
                    </mxGeometry>
                </mxCell>
                <mxCell id="24" style="edgeStyle=none;html=1;" parent="1" source="19" target="20" edge="1">
                    <mxGeometry relative="1" as="geometry"/>
                </mxCell>
                <mxCell id="19" value="&lt;div&gt;&lt;span&gt;Login&lt;/span&gt;&lt;/div&gt;" style="html=1;align=center;verticalAlign=top;rounded=1;absoluteArcSize=1;arcSize=10;dashed=0;whiteSpace=wrap;" parent="1" vertex="1">
                    <mxGeometry x="308" y="138" width="100" height="40" as="geometry"/>
                </mxCell>
                <mxCell id="20" value="Authenticated" style="rhombus;whiteSpace=wrap;html=1;fillColor=#ffffc0;strokeColor=#ff0000;" parent="1" vertex="1">
                    <mxGeometry x="308" y="208" width="100" height="60" as="geometry"/>
                </mxCell>
                <mxCell id="21" value="no" style="edgeStyle=orthogonalEdgeStyle;html=1;align=left;verticalAlign=bottom;endArrow=open;endSize=8;strokeColor=#ff0000;entryX=1;entryY=0.5;entryDx=0;entryDy=0;" parent="1" source="20" target="19" edge="1">
                    <mxGeometry x="-1" relative="1" as="geometry">
                        <mxPoint x="483" y="268" as="targetPoint"/>
                        <Array as="points">
                            <mxPoint x="438" y="238"/>
                            <mxPoint x="438" y="158"/>
                        </Array>
                    </mxGeometry>
                </mxCell>
                <mxCell id="22" value="yes" style="edgeStyle=orthogonalEdgeStyle;html=1;align=left;verticalAlign=top;endArrow=open;endSize=8;strokeColor=#ff0000;" parent="1" source="20" target="25" edge="1">
                    <mxGeometry x="-1" relative="1" as="geometry">
                        <mxPoint x="343" y="348" as="targetPoint"/>
                    </mxGeometry>
                </mxCell>
                <mxCell id="72" style="edgeStyle=orthogonalEdgeStyle;jumpStyle=none;html=1;strokeColor=#FF0000;" parent="1" source="25" target="50" edge="1">
                    <mxGeometry relative="1" as="geometry"/>
                </mxCell>
                <mxCell id="25" value="" style="shape=line;html=1;strokeWidth=6;strokeColor=#ff0000;" parent="1" vertex="1">
                    <mxGeometry x="258" y="298" width="200" height="10" as="geometry"/>
                </mxCell>
                <mxCell id="26" value="" style="edgeStyle=orthogonalEdgeStyle;html=1;verticalAlign=bottom;endArrow=open;endSize=8;strokeColor=#ff0000;" parent="1" source="25" target="29" edge="1">
                    <mxGeometry relative="1" as="geometry">
                        <mxPoint x="278" y="388" as="targetPoint"/>
                    </mxGeometry>
                </mxCell>
                <mxCell id="29" value="Order Product" style="rounded=1;whiteSpace=wrap;html=1;arcSize=40;fontColor=#000000;fillColor=#ffffc0;strokeColor=#ff0000;" parent="1" vertex="1">
                    <mxGeometry x="158" y="338" width="100" height="40" as="geometry"/>
                </mxCell>
                <mxCell id="37" style="edgeStyle=orthogonalEdgeStyle;html=1;strokeColor=#FF0000;" parent="1" source="31" target="32" edge="1">
                    <mxGeometry relative="1" as="geometry"/>
                </mxCell>
                <mxCell id="31" value="&lt;div&gt;&lt;span&gt;Search Product&lt;/span&gt;&lt;/div&gt;" style="html=1;align=center;verticalAlign=top;rounded=1;absoluteArcSize=1;arcSize=10;dashed=0;whiteSpace=wrap;" parent="1" vertex="1">
                    <mxGeometry x="78" y="418" width="100" height="40" as="geometry"/>
                </mxCell>
                <mxCell id="53" style="edgeStyle=orthogonalEdgeStyle;html=1;strokeColor=#FF0000;" parent="1" source="32" target="39" edge="1">
                    <mxGeometry relative="1" as="geometry">
                        <Array as="points">
                            <mxPoint x="128" y="588"/>
                        </Array>
                    </mxGeometry>
                </mxCell>
                <mxCell id="58" style="edgeStyle=orthogonalEdgeStyle;html=1;strokeColor=#FF0000;" parent="1" source="32" target="29" edge="1">
                    <mxGeometry relative="1" as="geometry">
                        <Array as="points">
                            <mxPoint x="208" y="518"/>
                        </Array>
                    </mxGeometry>
                </mxCell>
                <mxCell id="32" value="Found" style="rhombus;whiteSpace=wrap;html=1;fillColor=#ffffc0;strokeColor=#ff0000;" parent="1" vertex="1">
                    <mxGeometry x="88" y="498" width="80" height="40" as="geometry"/>
                </mxCell>
                <mxCell id="44" style="edgeStyle=orthogonalEdgeStyle;html=1;fillColor=#e51400;strokeColor=#FF0000;" parent="1" source="29" target="38" edge="1">
                    <mxGeometry relative="1" as="geometry">
                        <mxPoint x="268" y="418" as="sourcePoint"/>
                    </mxGeometry>
                </mxCell>
                <mxCell id="36" value="" style="edgeStyle=orthogonalEdgeStyle;html=1;verticalAlign=bottom;endArrow=open;endSize=8;strokeColor=#ff0000;" parent="1" source="29" target="31" edge="1">
                    <mxGeometry relative="1" as="geometry">
                        <mxPoint x="398" y="488" as="targetPoint"/>
                        <mxPoint x="268" y="418" as="sourcePoint"/>
                    </mxGeometry>
                </mxCell>
                <mxCell id="55" style="edgeStyle=orthogonalEdgeStyle;html=1;strokeColor=#FF0000;" parent="1" source="38" target="39" edge="1">
                    <mxGeometry relative="1" as="geometry">
                        <Array as="points">
                            <mxPoint x="288" y="588"/>
                        </Array>
                    </mxGeometry>
                </mxCell>
                <mxCell id="38" value="&lt;div&gt;&lt;span&gt;Browse Product&lt;/span&gt;&lt;/div&gt;" style="html=1;align=center;verticalAlign=top;rounded=1;absoluteArcSize=1;arcSize=10;dashed=0;whiteSpace=wrap;" parent="1" vertex="1">
                    <mxGeometry x="238" y="418" width="100" height="40" as="geometry"/>
                </mxCell>
                <mxCell id="46" value="" style="edgeStyle=orthogonalEdgeStyle;html=1;strokeColor=#FF0000;" parent="1" source="39" target="45" edge="1">
                    <mxGeometry relative="1" as="geometry"/>
                </mxCell>
                <mxCell id="RE1d0KKRmQpx-MmXVXjV-75" style="edgeStyle=orthogonalEdgeStyle;jumpStyle=none;html=1;strokeColor=#FF0000;" parent="1" source="39" target="47" edge="1">
                    <mxGeometry relative="1" as="geometry"/>
                </mxCell>
                <mxCell id="39" value="&lt;div&gt;&lt;span&gt;View Product&lt;/span&gt;&lt;/div&gt;" style="html=1;align=center;verticalAlign=top;rounded=1;absoluteArcSize=1;arcSize=10;dashed=0;whiteSpace=wrap;" parent="1" vertex="1">
                    <mxGeometry x="158" y="568" width="100" height="40" as="geometry"/>
                </mxCell>
                <mxCell id="WXwUl84dRs6JUakfpHyy-76" style="edgeStyle=orthogonalEdgeStyle;jumpStyle=none;html=1;strokeColor=#FF0000;startArrow=none;" parent="1" source="47" target="WXwUl84dRs6JUakfpHyy-72" edge="1">
                    <mxGeometry relative="1" as="geometry"/>
                </mxCell>
                <mxCell id="RE1d0KKRmQpx-MmXVXjV-74" style="edgeStyle=orthogonalEdgeStyle;jumpStyle=none;html=1;strokeColor=#FF0000;" parent="1" source="45" target="47" edge="1">
                    <mxGeometry relative="1" as="geometry"/>
                </mxCell>
                <mxCell id="45" value="&lt;div&gt;&lt;span&gt;Add to Cart&lt;/span&gt;&lt;/div&gt;" style="html=1;align=center;verticalAlign=top;rounded=1;absoluteArcSize=1;arcSize=10;dashed=0;whiteSpace=wrap;" parent="1" vertex="1">
                    <mxGeometry x="78" y="648" width="100" height="40" as="geometry"/>
                </mxCell>
                <mxCell id="64" style="edgeStyle=orthogonalEdgeStyle;jumpStyle=none;html=1;strokeColor=#FF0000;" parent="1" source="50" target="61" edge="1">
                    <mxGeometry relative="1" as="geometry"/>
                </mxCell>
                <mxCell id="65" style="edgeStyle=orthogonalEdgeStyle;jumpStyle=none;html=1;strokeColor=#FF0000;" parent="1" source="50" target="63" edge="1">
                    <mxGeometry relative="1" as="geometry"/>
                </mxCell>
                <mxCell id="50" value="View Profile" style="rounded=1;whiteSpace=wrap;html=1;arcSize=40;fontColor=#000000;fillColor=#ffffc0;strokeColor=#ff0000;" parent="1" vertex="1">
                    <mxGeometry x="458" y="338" width="100" height="40" as="geometry"/>
                </mxCell>
                <mxCell id="59" value="no" style="text;html=1;align=center;verticalAlign=middle;resizable=0;points=[];autosize=1;strokeColor=none;fillColor=none;" parent="1" vertex="1">
                    <mxGeometry x="168" y="498" width="30" height="20" as="geometry"/>
                </mxCell>
                <mxCell id="60" value="yes" style="text;html=1;align=center;verticalAlign=middle;resizable=0;points=[];autosize=1;strokeColor=none;fillColor=none;" parent="1" vertex="1">
                    <mxGeometry x="128" y="538" width="30" height="20" as="geometry"/>
                </mxCell>
                <mxCell id="WXwUl84dRs6JUakfpHyy-77" style="edgeStyle=orthogonalEdgeStyle;jumpStyle=none;html=1;entryX=0.502;entryY=0.56;entryDx=0;entryDy=0;entryPerimeter=0;strokeColor=#FF0000;" parent="1" source="61" target="66" edge="1">
                    <mxGeometry relative="1" as="geometry">
                        <Array as="points">
                            <mxPoint x="423" y="868"/>
                            <mxPoint x="358" y="868"/>
                        </Array>
                    </mxGeometry>
                </mxCell>
                <mxCell id="61" value="&lt;div&gt;&lt;span&gt;Edit Profile&lt;/span&gt;&lt;/div&gt;" style="html=1;align=center;verticalAlign=top;rounded=1;absoluteArcSize=1;arcSize=10;dashed=0;whiteSpace=wrap;" parent="1" vertex="1">
                    <mxGeometry x="373" y="418" width="100" height="40" as="geometry"/>
                </mxCell>
                <mxCell id="70" style="edgeStyle=orthogonalEdgeStyle;jumpStyle=none;html=1;strokeColor=#FF0000;" parent="1" source="ZD9o2kM7trRTHTBefrJ--72" target="66" edge="1">
                    <mxGeometry relative="1" as="geometry">
                        <mxPoint x="398" y="788" as="targetPoint"/>
                        <Array as="points">
                            <mxPoint x="598" y="868"/>
                            <mxPoint x="358" y="868"/>
                        </Array>
                        <mxPoint x="598" y="601" as="sourcePoint"/>
                    </mxGeometry>
                </mxCell>
                <mxCell id="63" value="&lt;div&gt;&lt;span&gt;View Order Progress&lt;/span&gt;&lt;/div&gt;" style="html=1;align=center;verticalAlign=top;rounded=1;absoluteArcSize=1;arcSize=10;dashed=0;whiteSpace=wrap;" parent="1" vertex="1">
                    <mxGeometry x="548" y="418" width="100" height="40" as="geometry"/>
                </mxCell>
                <mxCell id="66" value="" style="shape=line;html=1;strokeWidth=6;strokeColor=#ff0000;" parent="1" vertex="1">
                    <mxGeometry x="258" y="888" width="200" height="10" as="geometry"/>
                </mxCell>
                <mxCell id="67" value="" style="edgeStyle=orthogonalEdgeStyle;html=1;verticalAlign=bottom;endArrow=open;endSize=8;strokeColor=#ff0000;jumpStyle=none;" parent="1" source="66" target="71" edge="1">
                    <mxGeometry relative="1" as="geometry">
                        <mxPoint x="398" y="868" as="targetPoint"/>
                    </mxGeometry>
                </mxCell>
                <mxCell id="71" value="" style="ellipse;html=1;shape=endState;fillColor=#000000;strokeColor=#ff0000;" parent="1" vertex="1">
                    <mxGeometry x="343" y="938" width="30" height="30" as="geometry"/>
                </mxCell>
                <mxCell id="RE1d0KKRmQpx-MmXVXjV-76" style="edgeStyle=orthogonalEdgeStyle;jumpStyle=none;html=1;strokeColor=#FF0000;" parent="1" source="WXwUl84dRs6JUakfpHyy-72" target="39" edge="1">
                    <mxGeometry relative="1" as="geometry">
                        <Array as="points">
                            <mxPoint x="288" y="828"/>
                            <mxPoint x="288" y="588"/>
                        </Array>
                    </mxGeometry>
                </mxCell>
                <mxCell id="RE1d0KKRmQpx-MmXVXjV-77" style="edgeStyle=orthogonalEdgeStyle;jumpStyle=none;html=1;entryX=0.502;entryY=0.576;entryDx=0;entryDy=0;entryPerimeter=0;strokeColor=#FF0000;" parent="1" source="WXwUl84dRs6JUakfpHyy-72" target="66" edge="1">
                    <mxGeometry relative="1" as="geometry">
                        <Array as="points">
                            <mxPoint x="208" y="868"/>
                            <mxPoint x="358" y="868"/>
                        </Array>
                    </mxGeometry>
                </mxCell>
                <mxCell id="WXwUl84dRs6JUakfpHyy-72" value="Validated" style="rhombus;whiteSpace=wrap;html=1;fillColor=#ffffc0;strokeColor=#ff0000;" parent="1" vertex="1">
                    <mxGeometry x="168" y="808" width="80" height="40" as="geometry"/>
                </mxCell>
                <mxCell id="47" value="Order" style="html=1;align=center;verticalAlign=top;rounded=1;absoluteArcSize=1;arcSize=10;dashed=0;whiteSpace=wrap;" parent="1" vertex="1">
                    <mxGeometry x="158" y="728" width="100" height="40" as="geometry"/>
                </mxCell>
                <mxCell id="RE1d0KKRmQpx-MmXVXjV-78" value="no" style="text;html=1;align=center;verticalAlign=middle;resizable=0;points=[];autosize=1;strokeColor=none;fillColor=none;" parent="1" vertex="1">
                    <mxGeometry x="243" y="808" width="30" height="20" as="geometry"/>
                </mxCell>
                <mxCell id="RE1d0KKRmQpx-MmXVXjV-79" value="yes" style="text;html=1;align=center;verticalAlign=middle;resizable=0;points=[];autosize=1;strokeColor=none;fillColor=none;" parent="1" vertex="1">
                    <mxGeometry x="213" y="848" width="30" height="20" as="geometry"/>
                </mxCell>
                <mxCell id="ZD9o2kM7trRTHTBefrJ--72" value="Finish Order stage" style="html=1;align=center;verticalAlign=top;rounded=1;absoluteArcSize=1;arcSize=10;dashed=0;whiteSpace=wrap;" vertex="1" parent="1">
                    <mxGeometry x="548" y="498" width="100" height="40" as="geometry"/>
                </mxCell>
                <mxCell id="ZD9o2kM7trRTHTBefrJ--74" style="edgeStyle=orthogonalEdgeStyle;jumpStyle=none;html=1;strokeColor=#FF0000;" edge="1" parent="1" source="63" target="ZD9o2kM7trRTHTBefrJ--72">
                    <mxGeometry relative="1" as="geometry">
                        <mxPoint x="518" y="388" as="sourcePoint"/>
                        <mxPoint x="608" y="428" as="targetPoint"/>
                    </mxGeometry>
                </mxCell>
            </root>
        </mxGraphModel>
    </diagram>
    <diagram id="x6sI1Pla5_JGbfoJbVUS" name="Product Management">
        <mxGraphModel dx="1491" dy="1015" grid="0" gridSize="10" guides="1" tooltips="1" connect="1" arrows="1" fold="1" page="1" pageScale="1" pageWidth="850" pageHeight="1100" math="0" shadow="0">
            <root>
                <mxCell id="K7r1Hf4C6vpMmrR3TeAe-0"/>
                <mxCell id="K7r1Hf4C6vpMmrR3TeAe-1" parent="K7r1Hf4C6vpMmrR3TeAe-0"/>
                <mxCell id="XXuXubLPZKKcS9EWZ0JL-0" value="" style="ellipse;html=1;shape=startState;fillColor=#000000;strokeColor=#ff0000;" parent="K7r1Hf4C6vpMmrR3TeAe-1" vertex="1">
                    <mxGeometry x="495" y="340" width="30" height="30" as="geometry"/>
                </mxCell>
                <mxCell id="XXuXubLPZKKcS9EWZ0JL-1" value="" style="edgeStyle=orthogonalEdgeStyle;html=1;verticalAlign=bottom;endArrow=open;endSize=8;strokeColor=#ff0000;" parent="K7r1Hf4C6vpMmrR3TeAe-1" source="XXuXubLPZKKcS9EWZ0JL-0" target="XXuXubLPZKKcS9EWZ0JL-3" edge="1">
                    <mxGeometry relative="1" as="geometry">
                        <mxPoint x="535" y="400" as="targetPoint"/>
                    </mxGeometry>
                </mxCell>
                <mxCell id="XXuXubLPZKKcS9EWZ0JL-2" style="edgeStyle=none;html=1;" parent="K7r1Hf4C6vpMmrR3TeAe-1" source="XXuXubLPZKKcS9EWZ0JL-3" target="XXuXubLPZKKcS9EWZ0JL-4" edge="1">
                    <mxGeometry relative="1" as="geometry"/>
                </mxCell>
                <mxCell id="XXuXubLPZKKcS9EWZ0JL-3" value="&lt;div&gt;&lt;span&gt;Login&lt;/span&gt;&lt;/div&gt;" style="html=1;align=center;verticalAlign=top;rounded=1;absoluteArcSize=1;arcSize=10;dashed=0;whiteSpace=wrap;" parent="K7r1Hf4C6vpMmrR3TeAe-1" vertex="1">
                    <mxGeometry x="460" y="400" width="100" height="40" as="geometry"/>
                </mxCell>
                <mxCell id="XXuXubLPZKKcS9EWZ0JL-4" value="Authenticated" style="rhombus;whiteSpace=wrap;html=1;fillColor=#ffffc0;strokeColor=#ff0000;" parent="K7r1Hf4C6vpMmrR3TeAe-1" vertex="1">
                    <mxGeometry x="460" y="470" width="100" height="60" as="geometry"/>
                </mxCell>
                <mxCell id="XXuXubLPZKKcS9EWZ0JL-5" value="no" style="edgeStyle=orthogonalEdgeStyle;html=1;align=left;verticalAlign=bottom;endArrow=open;endSize=8;strokeColor=#ff0000;entryX=1;entryY=0.5;entryDx=0;entryDy=0;" parent="K7r1Hf4C6vpMmrR3TeAe-1" source="XXuXubLPZKKcS9EWZ0JL-4" target="XXuXubLPZKKcS9EWZ0JL-3" edge="1">
                    <mxGeometry x="-1" relative="1" as="geometry">
                        <mxPoint x="635" y="530" as="targetPoint"/>
                        <Array as="points">
                            <mxPoint x="590" y="500"/>
                            <mxPoint x="590" y="420"/>
                        </Array>
                    </mxGeometry>
                </mxCell>
                <mxCell id="XXuXubLPZKKcS9EWZ0JL-6" value="yes" style="edgeStyle=orthogonalEdgeStyle;html=1;align=left;verticalAlign=top;endArrow=open;endSize=8;strokeColor=#ff0000;entryX=0.506;entryY=0.64;entryDx=0;entryDy=0;entryPerimeter=0;" parent="K7r1Hf4C6vpMmrR3TeAe-1" source="XXuXubLPZKKcS9EWZ0JL-4" target="R9wDn70ERGM6RgQMN4Yu-0" edge="1">
                    <mxGeometry x="-1" relative="1" as="geometry">
                        <mxPoint x="510" y="560" as="targetPoint"/>
                    </mxGeometry>
                </mxCell>
                <mxCell id="AsH_oA_59UCb7lFgrNYY-4" style="edgeStyle=orthogonalEdgeStyle;jumpStyle=none;html=1;strokeColor=#FF0000;" parent="K7r1Hf4C6vpMmrR3TeAe-1" source="R9wDn70ERGM6RgQMN4Yu-0" target="AsH_oA_59UCb7lFgrNYY-1" edge="1">
                    <mxGeometry relative="1" as="geometry"/>
                </mxCell>
                <mxCell id="AsH_oA_59UCb7lFgrNYY-5" style="edgeStyle=orthogonalEdgeStyle;jumpStyle=none;html=1;strokeColor=#FF0000;" parent="K7r1Hf4C6vpMmrR3TeAe-1" source="R9wDn70ERGM6RgQMN4Yu-0" target="AsH_oA_59UCb7lFgrNYY-2" edge="1">
                    <mxGeometry relative="1" as="geometry">
                        <Array as="points">
                            <mxPoint x="510" y="580"/>
                            <mxPoint x="740" y="580"/>
                        </Array>
                    </mxGeometry>
                </mxCell>
                <mxCell id="R9wDn70ERGM6RgQMN4Yu-0" value="" style="shape=line;html=1;strokeWidth=6;strokeColor=#ff0000;" parent="K7r1Hf4C6vpMmrR3TeAe-1" vertex="1">
                    <mxGeometry x="410" y="560" width="200" height="10" as="geometry"/>
                </mxCell>
                <mxCell id="R9wDn70ERGM6RgQMN4Yu-1" value="" style="edgeStyle=orthogonalEdgeStyle;html=1;verticalAlign=bottom;endArrow=open;endSize=8;strokeColor=#ff0000;jumpStyle=none;" parent="K7r1Hf4C6vpMmrR3TeAe-1" source="R9wDn70ERGM6RgQMN4Yu-0" target="AsH_oA_59UCb7lFgrNYY-0" edge="1">
                    <mxGeometry relative="1" as="geometry">
                        <mxPoint x="510" y="650" as="targetPoint"/>
                        <Array as="points">
                            <mxPoint x="510" y="580"/>
                            <mxPoint x="170" y="580"/>
                        </Array>
                    </mxGeometry>
                </mxCell>
                <mxCell id="AsH_oA_59UCb7lFgrNYY-7" style="edgeStyle=orthogonalEdgeStyle;html=1;strokeColor=#FF0000;" parent="K7r1Hf4C6vpMmrR3TeAe-1" source="AsH_oA_59UCb7lFgrNYY-0" target="AsH_oA_59UCb7lFgrNYY-6" edge="1">
                    <mxGeometry relative="1" as="geometry">
                        <mxPoint x="130" y="680" as="targetPoint"/>
                        <Array as="points">
                            <mxPoint x="170" y="660"/>
                            <mxPoint x="60" y="660"/>
                        </Array>
                    </mxGeometry>
                </mxCell>
                <mxCell id="AsH_oA_59UCb7lFgrNYY-10" style="edgeStyle=orthogonalEdgeStyle;html=1;strokeColor=#FF0000;" parent="K7r1Hf4C6vpMmrR3TeAe-1" source="AsH_oA_59UCb7lFgrNYY-0" target="AsH_oA_59UCb7lFgrNYY-8" edge="1">
                    <mxGeometry relative="1" as="geometry"/>
                </mxCell>
                <mxCell id="AsH_oA_59UCb7lFgrNYY-11" style="edgeStyle=orthogonalEdgeStyle;html=1;strokeColor=#FF0000;" parent="K7r1Hf4C6vpMmrR3TeAe-1" source="AsH_oA_59UCb7lFgrNYY-0" target="AsH_oA_59UCb7lFgrNYY-9" edge="1">
                    <mxGeometry relative="1" as="geometry">
                        <Array as="points">
                            <mxPoint x="170" y="660"/>
                            <mxPoint x="280" y="660"/>
                        </Array>
                    </mxGeometry>
                </mxCell>
                <mxCell id="AsH_oA_59UCb7lFgrNYY-0" value="Create Product" style="rounded=1;whiteSpace=wrap;html=1;arcSize=40;fontColor=#000000;fillColor=#ffffc0;strokeColor=#ff0000;" parent="K7r1Hf4C6vpMmrR3TeAe-1" vertex="1">
                    <mxGeometry x="120" y="600" width="100" height="40" as="geometry"/>
                </mxCell>
                <mxCell id="gJvBg4iPxAIxxVNJoptW-0" style="edgeStyle=orthogonalEdgeStyle;jumpStyle=none;html=1;strokeColor=#FF0000;" parent="K7r1Hf4C6vpMmrR3TeAe-1" source="AsH_oA_59UCb7lFgrNYY-1" target="AsH_oA_59UCb7lFgrNYY-12" edge="1">
                    <mxGeometry relative="1" as="geometry">
                        <Array as="points">
                            <mxPoint x="510" y="660"/>
                            <mxPoint x="400" y="660"/>
                        </Array>
                    </mxGeometry>
                </mxCell>
                <mxCell id="gJvBg4iPxAIxxVNJoptW-2" style="edgeStyle=orthogonalEdgeStyle;jumpStyle=none;html=1;strokeColor=#FF0000;" parent="K7r1Hf4C6vpMmrR3TeAe-1" source="AsH_oA_59UCb7lFgrNYY-1" target="AsH_oA_59UCb7lFgrNYY-13" edge="1">
                    <mxGeometry relative="1" as="geometry"/>
                </mxCell>
                <mxCell id="gJvBg4iPxAIxxVNJoptW-3" style="edgeStyle=orthogonalEdgeStyle;jumpStyle=none;html=1;strokeColor=#FF0000;" parent="K7r1Hf4C6vpMmrR3TeAe-1" source="AsH_oA_59UCb7lFgrNYY-1" target="AsH_oA_59UCb7lFgrNYY-14" edge="1">
                    <mxGeometry relative="1" as="geometry">
                        <Array as="points">
                            <mxPoint x="510" y="660"/>
                            <mxPoint x="620" y="660"/>
                        </Array>
                    </mxGeometry>
                </mxCell>
                <mxCell id="AsH_oA_59UCb7lFgrNYY-1" value="Update Product" style="rounded=1;whiteSpace=wrap;html=1;arcSize=40;fontColor=#000000;fillColor=#ffffc0;strokeColor=#ff0000;" parent="K7r1Hf4C6vpMmrR3TeAe-1" vertex="1">
                    <mxGeometry x="460" y="600" width="100" height="40" as="geometry"/>
                </mxCell>
                <mxCell id="gJvBg4iPxAIxxVNJoptW-33" style="edgeStyle=orthogonalEdgeStyle;jumpStyle=none;html=1;strokeColor=#FF0000;" parent="K7r1Hf4C6vpMmrR3TeAe-1" source="AsH_oA_59UCb7lFgrNYY-2" target="gJvBg4iPxAIxxVNJoptW-29" edge="1">
                    <mxGeometry relative="1" as="geometry"/>
                </mxCell>
                <mxCell id="AsH_oA_59UCb7lFgrNYY-2" value="Delete Product" style="rounded=1;whiteSpace=wrap;html=1;arcSize=40;fontColor=#000000;fillColor=#ffffc0;strokeColor=#ff0000;" parent="K7r1Hf4C6vpMmrR3TeAe-1" vertex="1">
                    <mxGeometry x="690" y="600" width="100" height="40" as="geometry"/>
                </mxCell>
                <mxCell id="gJvBg4iPxAIxxVNJoptW-14" style="edgeStyle=orthogonalEdgeStyle;jumpStyle=none;html=1;entryX=0.5;entryY=0;entryDx=0;entryDy=0;strokeColor=#FF0000;" parent="K7r1Hf4C6vpMmrR3TeAe-1" source="AsH_oA_59UCb7lFgrNYY-6" target="gJvBg4iPxAIxxVNJoptW-11" edge="1">
                    <mxGeometry relative="1" as="geometry">
                        <Array as="points">
                            <mxPoint x="60" y="740"/>
                            <mxPoint x="170" y="740"/>
                        </Array>
                    </mxGeometry>
                </mxCell>
                <mxCell id="AsH_oA_59UCb7lFgrNYY-6" value="&lt;div&gt;&lt;span&gt;Fill general info&lt;/span&gt;&lt;/div&gt;" style="html=1;align=center;verticalAlign=top;rounded=1;absoluteArcSize=1;arcSize=10;dashed=0;whiteSpace=wrap;" parent="K7r1Hf4C6vpMmrR3TeAe-1" vertex="1">
                    <mxGeometry x="10" y="680" width="100" height="40" as="geometry"/>
                </mxCell>
                <mxCell id="AsH_oA_59UCb7lFgrNYY-8" value="&lt;div&gt;&lt;span&gt;Select images&lt;/span&gt;&lt;/div&gt;" style="html=1;align=center;verticalAlign=top;rounded=1;absoluteArcSize=1;arcSize=10;dashed=0;whiteSpace=wrap;" parent="K7r1Hf4C6vpMmrR3TeAe-1" vertex="1">
                    <mxGeometry x="120" y="680" width="100" height="40" as="geometry"/>
                </mxCell>
                <mxCell id="gJvBg4iPxAIxxVNJoptW-16" style="edgeStyle=orthogonalEdgeStyle;jumpStyle=none;html=1;entryX=0.5;entryY=0;entryDx=0;entryDy=0;strokeColor=#FF0000;" parent="K7r1Hf4C6vpMmrR3TeAe-1" source="AsH_oA_59UCb7lFgrNYY-9" target="gJvBg4iPxAIxxVNJoptW-11" edge="1">
                    <mxGeometry relative="1" as="geometry">
                        <Array as="points">
                            <mxPoint x="280" y="740"/>
                            <mxPoint x="170" y="740"/>
                        </Array>
                    </mxGeometry>
                </mxCell>
                <mxCell id="AsH_oA_59UCb7lFgrNYY-9" value="&lt;div&gt;&lt;span&gt;Set Variant/Variations&lt;/span&gt;&lt;/div&gt;" style="html=1;align=center;verticalAlign=top;rounded=1;absoluteArcSize=1;arcSize=10;dashed=0;whiteSpace=wrap;" parent="K7r1Hf4C6vpMmrR3TeAe-1" vertex="1">
                    <mxGeometry x="230" y="680" width="100" height="40" as="geometry"/>
                </mxCell>
                <mxCell id="gJvBg4iPxAIxxVNJoptW-21" style="edgeStyle=orthogonalEdgeStyle;jumpStyle=none;html=1;strokeColor=#FF0000;" parent="K7r1Hf4C6vpMmrR3TeAe-1" source="AsH_oA_59UCb7lFgrNYY-12" target="gJvBg4iPxAIxxVNJoptW-18" edge="1">
                    <mxGeometry relative="1" as="geometry">
                        <Array as="points">
                            <mxPoint x="400" y="740"/>
                            <mxPoint x="510" y="740"/>
                        </Array>
                    </mxGeometry>
                </mxCell>
                <mxCell id="AsH_oA_59UCb7lFgrNYY-12" value="&lt;div&gt;&lt;span&gt;update general info&lt;/span&gt;&lt;/div&gt;" style="html=1;align=center;verticalAlign=top;rounded=1;absoluteArcSize=1;arcSize=10;dashed=0;whiteSpace=wrap;" parent="K7r1Hf4C6vpMmrR3TeAe-1" vertex="1">
                    <mxGeometry x="350" y="680" width="100" height="40" as="geometry"/>
                </mxCell>
                <mxCell id="AsH_oA_59UCb7lFgrNYY-13" value="&lt;div&gt;&lt;span&gt;update images&lt;/span&gt;&lt;/div&gt;" style="html=1;align=center;verticalAlign=top;rounded=1;absoluteArcSize=1;arcSize=10;dashed=0;whiteSpace=wrap;" parent="K7r1Hf4C6vpMmrR3TeAe-1" vertex="1">
                    <mxGeometry x="460" y="680" width="100" height="40" as="geometry"/>
                </mxCell>
                <mxCell id="gJvBg4iPxAIxxVNJoptW-22" style="edgeStyle=orthogonalEdgeStyle;jumpStyle=none;html=1;strokeColor=#FF0000;" parent="K7r1Hf4C6vpMmrR3TeAe-1" source="AsH_oA_59UCb7lFgrNYY-14" target="gJvBg4iPxAIxxVNJoptW-18" edge="1">
                    <mxGeometry relative="1" as="geometry">
                        <Array as="points">
                            <mxPoint x="620" y="740"/>
                            <mxPoint x="510" y="740"/>
                        </Array>
                    </mxGeometry>
                </mxCell>
                <mxCell id="AsH_oA_59UCb7lFgrNYY-14" value="&lt;div&gt;&lt;span&gt;update variations&lt;/span&gt;&lt;/div&gt;" style="html=1;align=center;verticalAlign=top;rounded=1;absoluteArcSize=1;arcSize=10;dashed=0;whiteSpace=wrap;" parent="K7r1Hf4C6vpMmrR3TeAe-1" vertex="1">
                    <mxGeometry x="570" y="680" width="100" height="40" as="geometry"/>
                </mxCell>
                <mxCell id="gJvBg4iPxAIxxVNJoptW-11" value="Validated" style="rhombus;whiteSpace=wrap;html=1;fillColor=#ffffc0;strokeColor=#ff0000;" parent="K7r1Hf4C6vpMmrR3TeAe-1" vertex="1">
                    <mxGeometry x="130" y="760" width="80" height="40" as="geometry"/>
                </mxCell>
                <mxCell id="gJvBg4iPxAIxxVNJoptW-12" value="no" style="edgeStyle=orthogonalEdgeStyle;html=1;align=left;verticalAlign=bottom;endArrow=open;endSize=8;strokeColor=#ff0000;jumpStyle=none;" parent="K7r1Hf4C6vpMmrR3TeAe-1" source="gJvBg4iPxAIxxVNJoptW-11" target="AsH_oA_59UCb7lFgrNYY-0" edge="1">
                    <mxGeometry x="-1" relative="1" as="geometry">
                        <mxPoint x="250" y="800" as="targetPoint"/>
                        <Array as="points">
                            <mxPoint x="340" y="780"/>
                            <mxPoint x="340" y="620"/>
                        </Array>
                    </mxGeometry>
                </mxCell>
                <mxCell id="gJvBg4iPxAIxxVNJoptW-13" value="yes" style="edgeStyle=orthogonalEdgeStyle;html=1;align=left;verticalAlign=top;endArrow=open;endSize=8;strokeColor=#ff0000;jumpStyle=none;entryX=0.316;entryY=0.4;entryDx=0;entryDy=0;entryPerimeter=0;" parent="K7r1Hf4C6vpMmrR3TeAe-1" source="gJvBg4iPxAIxxVNJoptW-11" target="gJvBg4iPxAIxxVNJoptW-25" edge="1">
                    <mxGeometry x="-1" relative="1" as="geometry">
                        <mxPoint x="110" y="880" as="targetPoint"/>
                        <Array as="points">
                            <mxPoint x="170" y="840"/>
                            <mxPoint x="473" y="840"/>
                        </Array>
                    </mxGeometry>
                </mxCell>
                <mxCell id="gJvBg4iPxAIxxVNJoptW-18" value="Validated" style="rhombus;whiteSpace=wrap;html=1;fillColor=#ffffc0;strokeColor=#ff0000;" parent="K7r1Hf4C6vpMmrR3TeAe-1" vertex="1">
                    <mxGeometry x="470" y="760" width="80" height="40" as="geometry"/>
                </mxCell>
                <mxCell id="gJvBg4iPxAIxxVNJoptW-19" value="no" style="edgeStyle=orthogonalEdgeStyle;html=1;align=left;verticalAlign=bottom;endArrow=open;endSize=8;strokeColor=#ff0000;jumpStyle=none;" parent="K7r1Hf4C6vpMmrR3TeAe-1" source="gJvBg4iPxAIxxVNJoptW-18" target="AsH_oA_59UCb7lFgrNYY-1" edge="1">
                    <mxGeometry x="-1" relative="1" as="geometry">
                        <mxPoint x="620" y="780" as="targetPoint"/>
                        <Array as="points">
                            <mxPoint x="680" y="780"/>
                            <mxPoint x="680" y="620"/>
                        </Array>
                    </mxGeometry>
                </mxCell>
                <mxCell id="gJvBg4iPxAIxxVNJoptW-20" value="yes" style="edgeStyle=orthogonalEdgeStyle;html=1;align=left;verticalAlign=top;endArrow=open;endSize=8;strokeColor=#ff0000;jumpStyle=none;entryX=0.496;entryY=0.6;entryDx=0;entryDy=0;entryPerimeter=0;" parent="K7r1Hf4C6vpMmrR3TeAe-1" source="gJvBg4iPxAIxxVNJoptW-18" target="gJvBg4iPxAIxxVNJoptW-25" edge="1">
                    <mxGeometry x="-1" relative="1" as="geometry">
                        <mxPoint x="480" y="860" as="targetPoint"/>
                        <Array as="points">
                            <mxPoint x="510" y="880"/>
                            <mxPoint x="509" y="880"/>
                        </Array>
                    </mxGeometry>
                </mxCell>
                <mxCell id="gJvBg4iPxAIxxVNJoptW-25" value="" style="shape=line;html=1;strokeWidth=6;strokeColor=#ff0000;" parent="K7r1Hf4C6vpMmrR3TeAe-1" vertex="1">
                    <mxGeometry x="410" y="880" width="200" height="10" as="geometry"/>
                </mxCell>
                <mxCell id="gJvBg4iPxAIxxVNJoptW-26" value="" style="edgeStyle=orthogonalEdgeStyle;html=1;verticalAlign=bottom;endArrow=open;endSize=8;strokeColor=#ff0000;jumpStyle=none;" parent="K7r1Hf4C6vpMmrR3TeAe-1" source="gJvBg4iPxAIxxVNJoptW-25" target="gJvBg4iPxAIxxVNJoptW-28" edge="1">
                    <mxGeometry relative="1" as="geometry">
                        <mxPoint x="450" y="950" as="targetPoint"/>
                    </mxGeometry>
                </mxCell>
                <mxCell id="gJvBg4iPxAIxxVNJoptW-28" value="" style="ellipse;html=1;shape=endState;fillColor=#000000;strokeColor=#ff0000;" parent="K7r1Hf4C6vpMmrR3TeAe-1" vertex="1">
                    <mxGeometry x="495" y="930" width="30" height="30" as="geometry"/>
                </mxCell>
                <mxCell id="gJvBg4iPxAIxxVNJoptW-34" style="edgeStyle=orthogonalEdgeStyle;jumpStyle=none;html=1;strokeColor=#FF0000;" parent="K7r1Hf4C6vpMmrR3TeAe-1" source="gJvBg4iPxAIxxVNJoptW-29" target="gJvBg4iPxAIxxVNJoptW-30" edge="1">
                    <mxGeometry relative="1" as="geometry"/>
                </mxCell>
                <mxCell id="gJvBg4iPxAIxxVNJoptW-29" value="&lt;div&gt;&lt;span&gt;select Product&lt;/span&gt;&lt;/div&gt;" style="html=1;align=center;verticalAlign=top;rounded=1;absoluteArcSize=1;arcSize=10;dashed=0;whiteSpace=wrap;" parent="K7r1Hf4C6vpMmrR3TeAe-1" vertex="1">
                    <mxGeometry x="690" y="680" width="100" height="40" as="geometry"/>
                </mxCell>
                <mxCell id="gJvBg4iPxAIxxVNJoptW-30" value="accept" style="rhombus;whiteSpace=wrap;html=1;fillColor=#ffffc0;strokeColor=#ff0000;" parent="K7r1Hf4C6vpMmrR3TeAe-1" vertex="1">
                    <mxGeometry x="700" y="760" width="80" height="40" as="geometry"/>
                </mxCell>
                <mxCell id="gJvBg4iPxAIxxVNJoptW-31" value="no" style="edgeStyle=orthogonalEdgeStyle;html=1;align=left;verticalAlign=bottom;endArrow=open;endSize=8;strokeColor=#ff0000;jumpStyle=none;" parent="K7r1Hf4C6vpMmrR3TeAe-1" source="gJvBg4iPxAIxxVNJoptW-30" target="AsH_oA_59UCb7lFgrNYY-2" edge="1">
                    <mxGeometry x="-1" relative="1" as="geometry">
                        <mxPoint x="850" y="820" as="targetPoint"/>
                        <Array as="points">
                            <mxPoint x="820" y="780"/>
                            <mxPoint x="820" y="620"/>
                        </Array>
                    </mxGeometry>
                </mxCell>
                <mxCell id="gJvBg4iPxAIxxVNJoptW-32" value="yes" style="edgeStyle=orthogonalEdgeStyle;html=1;align=left;verticalAlign=top;endArrow=open;endSize=8;strokeColor=#ff0000;jumpStyle=none;entryX=0.696;entryY=0.76;entryDx=0;entryDy=0;entryPerimeter=0;" parent="K7r1Hf4C6vpMmrR3TeAe-1" source="gJvBg4iPxAIxxVNJoptW-30" target="gJvBg4iPxAIxxVNJoptW-25" edge="1">
                    <mxGeometry x="-1" relative="1" as="geometry">
                        <mxPoint x="710" y="900" as="targetPoint"/>
                        <Array as="points">
                            <mxPoint x="740" y="840"/>
                            <mxPoint x="549" y="840"/>
                        </Array>
                    </mxGeometry>
                </mxCell>
            </root>
        </mxGraphModel>
    </diagram>
    <diagram id="JgoM5RHCUXRTKr8i5ChD" name="Category Management">
        <mxGraphModel dx="1171" dy="797" grid="0" gridSize="10" guides="1" tooltips="1" connect="1" arrows="1" fold="1" page="1" pageScale="1" pageWidth="850" pageHeight="1100" math="0" shadow="0">
            <root>
                <mxCell id="0seIgQq63aaIaXHRIy1Y-0"/>
                <mxCell id="0seIgQq63aaIaXHRIy1Y-1" parent="0seIgQq63aaIaXHRIy1Y-0"/>
                <mxCell id="Bwn4bMFjbtTnJMb2X8sI-0" value="" style="edgeStyle=orthogonalEdgeStyle;html=1;verticalAlign=bottom;endArrow=open;endSize=8;strokeColor=#ff0000;" parent="0seIgQq63aaIaXHRIy1Y-1" target="Bwn4bMFjbtTnJMb2X8sI-2" edge="1">
                    <mxGeometry relative="1" as="geometry">
                        <mxPoint x="455" y="285" as="targetPoint"/>
                        <mxPoint x="430" y="255" as="sourcePoint"/>
                        <Array as="points">
                            <mxPoint x="430" y="230"/>
                            <mxPoint x="430" y="230"/>
                        </Array>
                    </mxGeometry>
                </mxCell>
                <mxCell id="Bwn4bMFjbtTnJMb2X8sI-1" style="edgeStyle=none;html=1;" parent="0seIgQq63aaIaXHRIy1Y-1" source="Bwn4bMFjbtTnJMb2X8sI-2" target="Bwn4bMFjbtTnJMb2X8sI-3" edge="1">
                    <mxGeometry relative="1" as="geometry"/>
                </mxCell>
                <mxCell id="Bwn4bMFjbtTnJMb2X8sI-2" value="&lt;div&gt;&lt;span&gt;Login&lt;/span&gt;&lt;/div&gt;" style="html=1;align=center;verticalAlign=top;rounded=1;absoluteArcSize=1;arcSize=10;dashed=0;whiteSpace=wrap;" parent="0seIgQq63aaIaXHRIy1Y-1" vertex="1">
                    <mxGeometry x="380" y="280" width="100" height="40" as="geometry"/>
                </mxCell>
                <mxCell id="Bwn4bMFjbtTnJMb2X8sI-3" value="Authenticated" style="rhombus;whiteSpace=wrap;html=1;fillColor=#ffffc0;strokeColor=#ff0000;" parent="0seIgQq63aaIaXHRIy1Y-1" vertex="1">
                    <mxGeometry x="380" y="340" width="100" height="60" as="geometry"/>
                </mxCell>
                <mxCell id="Bwn4bMFjbtTnJMb2X8sI-4" value="no" style="edgeStyle=orthogonalEdgeStyle;html=1;align=left;verticalAlign=bottom;endArrow=open;endSize=8;strokeColor=#ff0000;entryX=1;entryY=0.5;entryDx=0;entryDy=0;" parent="0seIgQq63aaIaXHRIy1Y-1" source="Bwn4bMFjbtTnJMb2X8sI-3" target="Bwn4bMFjbtTnJMb2X8sI-2" edge="1">
                    <mxGeometry x="-1" relative="1" as="geometry">
                        <mxPoint x="555" y="415" as="targetPoint"/>
                        <Array as="points">
                            <mxPoint x="510" y="370"/>
                            <mxPoint x="510" y="300"/>
                        </Array>
                    </mxGeometry>
                </mxCell>
                <mxCell id="Bwn4bMFjbtTnJMb2X8sI-5" value="yes" style="edgeStyle=orthogonalEdgeStyle;html=1;align=left;verticalAlign=top;endArrow=open;endSize=8;strokeColor=#ff0000;" parent="0seIgQq63aaIaXHRIy1Y-1" source="Bwn4bMFjbtTnJMb2X8sI-3" target="Bwn4bMFjbtTnJMb2X8sI-8" edge="1">
                    <mxGeometry x="-1" relative="1" as="geometry">
                        <mxPoint x="460" y="420" as="targetPoint"/>
                        <Array as="points"/>
                    </mxGeometry>
                </mxCell>
                <mxCell id="Bwn4bMFjbtTnJMb2X8sI-6" style="edgeStyle=orthogonalEdgeStyle;jumpStyle=none;html=1;strokeColor=#FF0000;" parent="0seIgQq63aaIaXHRIy1Y-1" source="Bwn4bMFjbtTnJMb2X8sI-8" target="Bwn4bMFjbtTnJMb2X8sI-17" edge="1">
                    <mxGeometry relative="1" as="geometry"/>
                </mxCell>
                <mxCell id="Bwn4bMFjbtTnJMb2X8sI-7" style="edgeStyle=orthogonalEdgeStyle;jumpStyle=none;html=1;strokeColor=#FF0000;" parent="0seIgQq63aaIaXHRIy1Y-1" source="Bwn4bMFjbtTnJMb2X8sI-8" target="Bwn4bMFjbtTnJMb2X8sI-19" edge="1">
                    <mxGeometry relative="1" as="geometry">
                        <Array as="points">
                            <mxPoint x="430" y="460"/>
                            <mxPoint x="580" y="460"/>
                        </Array>
                    </mxGeometry>
                </mxCell>
                <mxCell id="Bwn4bMFjbtTnJMb2X8sI-8" value="" style="shape=line;html=1;strokeWidth=6;strokeColor=#ff0000;" parent="0seIgQq63aaIaXHRIy1Y-1" vertex="1">
                    <mxGeometry x="330" y="430" width="200" height="10" as="geometry"/>
                </mxCell>
                <mxCell id="Bwn4bMFjbtTnJMb2X8sI-9" value="" style="edgeStyle=orthogonalEdgeStyle;html=1;verticalAlign=bottom;endArrow=open;endSize=8;strokeColor=#ff0000;jumpStyle=none;" parent="0seIgQq63aaIaXHRIy1Y-1" source="Bwn4bMFjbtTnJMb2X8sI-8" target="Bwn4bMFjbtTnJMb2X8sI-13" edge="1">
                    <mxGeometry relative="1" as="geometry">
                        <mxPoint x="430" y="535" as="targetPoint"/>
                        <Array as="points">
                            <mxPoint x="430" y="460"/>
                            <mxPoint x="280" y="460"/>
                        </Array>
                    </mxGeometry>
                </mxCell>
                <mxCell id="Bwn4bMFjbtTnJMb2X8sI-11" style="edgeStyle=orthogonalEdgeStyle;html=1;strokeColor=#FF0000;" parent="0seIgQq63aaIaXHRIy1Y-1" source="Bwn4bMFjbtTnJMb2X8sI-13" target="Bwn4bMFjbtTnJMb2X8sI-22" edge="1">
                    <mxGeometry relative="1" as="geometry"/>
                </mxCell>
                <mxCell id="Bwn4bMFjbtTnJMb2X8sI-13" value="Create Category" style="rounded=1;whiteSpace=wrap;html=1;arcSize=40;fontColor=#000000;fillColor=#ffffc0;strokeColor=#ff0000;" parent="0seIgQq63aaIaXHRIy1Y-1" vertex="1">
                    <mxGeometry x="230" y="480" width="100" height="40" as="geometry"/>
                </mxCell>
                <mxCell id="Bwn4bMFjbtTnJMb2X8sI-15" style="edgeStyle=orthogonalEdgeStyle;jumpStyle=none;html=1;strokeColor=#FF0000;" parent="0seIgQq63aaIaXHRIy1Y-1" source="Bwn4bMFjbtTnJMb2X8sI-17" target="Bwn4bMFjbtTnJMb2X8sI-27" edge="1">
                    <mxGeometry relative="1" as="geometry"/>
                </mxCell>
                <mxCell id="Bwn4bMFjbtTnJMb2X8sI-17" value="Update Category" style="rounded=1;whiteSpace=wrap;html=1;arcSize=40;fontColor=#000000;fillColor=#ffffc0;strokeColor=#ff0000;" parent="0seIgQq63aaIaXHRIy1Y-1" vertex="1">
                    <mxGeometry x="380" y="480" width="100" height="40" as="geometry"/>
                </mxCell>
                <mxCell id="Bwn4bMFjbtTnJMb2X8sI-18" style="edgeStyle=orthogonalEdgeStyle;jumpStyle=none;html=1;strokeColor=#FF0000;" parent="0seIgQq63aaIaXHRIy1Y-1" source="Bwn4bMFjbtTnJMb2X8sI-19" target="Bwn4bMFjbtTnJMb2X8sI-40" edge="1">
                    <mxGeometry relative="1" as="geometry"/>
                </mxCell>
                <mxCell id="Bwn4bMFjbtTnJMb2X8sI-19" value="Delete Product" style="rounded=1;whiteSpace=wrap;html=1;arcSize=40;fontColor=#000000;fillColor=#ffffc0;strokeColor=#ff0000;" parent="0seIgQq63aaIaXHRIy1Y-1" vertex="1">
                    <mxGeometry x="530" y="480" width="100" height="40" as="geometry"/>
                </mxCell>
                <mxCell id="fqp37AIfEHc5VBaBsEAs-1" style="edgeStyle=orthogonalEdgeStyle;jumpStyle=none;html=1;strokeColor=#FF0000;" parent="0seIgQq63aaIaXHRIy1Y-1" source="ccGdNwGzbi4KVBCMrRUp-0" target="Bwn4bMFjbtTnJMb2X8sI-30" edge="1">
                    <mxGeometry relative="1" as="geometry">
                        <Array as="points"/>
                    </mxGeometry>
                </mxCell>
                <mxCell id="Bwn4bMFjbtTnJMb2X8sI-22" value="&lt;div&gt;&lt;span&gt;Fill name&lt;/span&gt;&lt;/div&gt;" style="html=1;align=center;verticalAlign=top;rounded=1;absoluteArcSize=1;arcSize=10;dashed=0;whiteSpace=wrap;" parent="0seIgQq63aaIaXHRIy1Y-1" vertex="1">
                    <mxGeometry x="230" y="560" width="100" height="40" as="geometry"/>
                </mxCell>
                <mxCell id="fqp37AIfEHc5VBaBsEAs-2" style="edgeStyle=orthogonalEdgeStyle;jumpStyle=none;html=1;strokeColor=#FF0000;" parent="0seIgQq63aaIaXHRIy1Y-1" source="Bwn4bMFjbtTnJMb2X8sI-27" target="ccGdNwGzbi4KVBCMrRUp-2" edge="1">
                    <mxGeometry relative="1" as="geometry"/>
                </mxCell>
                <mxCell id="Bwn4bMFjbtTnJMb2X8sI-27" value="Fill name" style="html=1;align=center;verticalAlign=top;rounded=1;absoluteArcSize=1;arcSize=10;dashed=0;whiteSpace=wrap;" parent="0seIgQq63aaIaXHRIy1Y-1" vertex="1">
                    <mxGeometry x="380" y="560" width="100" height="40" as="geometry"/>
                </mxCell>
                <mxCell id="Bwn4bMFjbtTnJMb2X8sI-30" value="Validated" style="rhombus;whiteSpace=wrap;html=1;fillColor=#ffffc0;strokeColor=#ff0000;" parent="0seIgQq63aaIaXHRIy1Y-1" vertex="1">
                    <mxGeometry x="240" y="720" width="80" height="40" as="geometry"/>
                </mxCell>
                <mxCell id="Bwn4bMFjbtTnJMb2X8sI-31" value="no" style="edgeStyle=orthogonalEdgeStyle;html=1;align=left;verticalAlign=bottom;endArrow=open;endSize=8;strokeColor=#ff0000;jumpStyle=none;" parent="0seIgQq63aaIaXHRIy1Y-1" source="Bwn4bMFjbtTnJMb2X8sI-30" target="Bwn4bMFjbtTnJMb2X8sI-13" edge="1">
                    <mxGeometry x="-1" relative="1" as="geometry">
                        <mxPoint x="220" y="685" as="targetPoint"/>
                        <Array as="points">
                            <mxPoint x="360" y="740"/>
                            <mxPoint x="360" y="500"/>
                        </Array>
                    </mxGeometry>
                </mxCell>
                <mxCell id="Bwn4bMFjbtTnJMb2X8sI-32" value="yes" style="edgeStyle=orthogonalEdgeStyle;html=1;align=left;verticalAlign=top;endArrow=open;endSize=8;strokeColor=#ff0000;jumpStyle=none;entryX=0.25;entryY=0.5;entryDx=0;entryDy=0;entryPerimeter=0;" parent="0seIgQq63aaIaXHRIy1Y-1" source="Bwn4bMFjbtTnJMb2X8sI-30" target="Bwn4bMFjbtTnJMb2X8sI-36" edge="1">
                    <mxGeometry x="-1" relative="1" as="geometry">
                        <mxPoint x="30" y="845" as="targetPoint"/>
                        <Array as="points">
                            <mxPoint x="280" y="800"/>
                            <mxPoint x="380" y="800"/>
                        </Array>
                    </mxGeometry>
                </mxCell>
                <mxCell id="Bwn4bMFjbtTnJMb2X8sI-33" value="Validated" style="rhombus;whiteSpace=wrap;html=1;fillColor=#ffffc0;strokeColor=#ff0000;" parent="0seIgQq63aaIaXHRIy1Y-1" vertex="1">
                    <mxGeometry x="390" y="720" width="80" height="40" as="geometry"/>
                </mxCell>
                <mxCell id="Bwn4bMFjbtTnJMb2X8sI-34" value="no" style="edgeStyle=orthogonalEdgeStyle;html=1;align=left;verticalAlign=bottom;endArrow=open;endSize=8;strokeColor=#ff0000;jumpStyle=none;" parent="0seIgQq63aaIaXHRIy1Y-1" source="Bwn4bMFjbtTnJMb2X8sI-33" target="Bwn4bMFjbtTnJMb2X8sI-17" edge="1">
                    <mxGeometry x="-1" relative="1" as="geometry">
                        <mxPoint x="540" y="665" as="targetPoint"/>
                        <Array as="points">
                            <mxPoint x="510" y="740"/>
                            <mxPoint x="510" y="500"/>
                        </Array>
                    </mxGeometry>
                </mxCell>
                <mxCell id="Bwn4bMFjbtTnJMb2X8sI-35" value="yes" style="edgeStyle=orthogonalEdgeStyle;html=1;align=left;verticalAlign=top;endArrow=open;endSize=8;strokeColor=#ff0000;jumpStyle=none;entryX=0.496;entryY=0.6;entryDx=0;entryDy=0;entryPerimeter=0;" parent="0seIgQq63aaIaXHRIy1Y-1" source="Bwn4bMFjbtTnJMb2X8sI-33" target="Bwn4bMFjbtTnJMb2X8sI-36" edge="1">
                    <mxGeometry x="-1" relative="1" as="geometry">
                        <mxPoint x="400" y="825" as="targetPoint"/>
                        <Array as="points">
                            <mxPoint x="430" y="845"/>
                            <mxPoint x="429" y="845"/>
                        </Array>
                    </mxGeometry>
                </mxCell>
                <mxCell id="Bwn4bMFjbtTnJMb2X8sI-36" value="" style="shape=line;html=1;strokeWidth=6;strokeColor=#ff0000;" parent="0seIgQq63aaIaXHRIy1Y-1" vertex="1">
                    <mxGeometry x="330" y="845" width="200" height="10" as="geometry"/>
                </mxCell>
                <mxCell id="Bwn4bMFjbtTnJMb2X8sI-37" value="" style="edgeStyle=orthogonalEdgeStyle;html=1;verticalAlign=bottom;endArrow=open;endSize=8;strokeColor=#ff0000;jumpStyle=none;" parent="0seIgQq63aaIaXHRIy1Y-1" source="Bwn4bMFjbtTnJMb2X8sI-36" target="Bwn4bMFjbtTnJMb2X8sI-38" edge="1">
                    <mxGeometry relative="1" as="geometry">
                        <mxPoint x="370" y="915" as="targetPoint"/>
                    </mxGeometry>
                </mxCell>
                <mxCell id="Bwn4bMFjbtTnJMb2X8sI-38" value="" style="ellipse;html=1;shape=endState;fillColor=#000000;strokeColor=#ff0000;" parent="0seIgQq63aaIaXHRIy1Y-1" vertex="1">
                    <mxGeometry x="415" y="895" width="30" height="30" as="geometry"/>
                </mxCell>
                <mxCell id="Bwn4bMFjbtTnJMb2X8sI-39" style="edgeStyle=orthogonalEdgeStyle;jumpStyle=none;html=1;strokeColor=#FF0000;entryX=0.75;entryY=0.5;entryDx=0;entryDy=0;entryPerimeter=0;" parent="0seIgQq63aaIaXHRIy1Y-1" source="Bwn4bMFjbtTnJMb2X8sI-40" target="Bwn4bMFjbtTnJMb2X8sI-36" edge="1">
                    <mxGeometry relative="1" as="geometry">
                        <mxPoint x="660.0588235294117" y="645.0294117647059" as="targetPoint"/>
                        <Array as="points">
                            <mxPoint x="580" y="800"/>
                            <mxPoint x="480" y="800"/>
                        </Array>
                    </mxGeometry>
                </mxCell>
                <mxCell id="Bwn4bMFjbtTnJMb2X8sI-40" value="&lt;div&gt;&lt;span&gt;select Product&lt;/span&gt;&lt;/div&gt;" style="html=1;align=center;verticalAlign=top;rounded=1;absoluteArcSize=1;arcSize=10;dashed=0;whiteSpace=wrap;" parent="0seIgQq63aaIaXHRIy1Y-1" vertex="1">
                    <mxGeometry x="530" y="560" width="100" height="40" as="geometry"/>
                </mxCell>
                <mxCell id="fqp37AIfEHc5VBaBsEAs-0" value="" style="ellipse;html=1;shape=startState;fillColor=#000000;strokeColor=#ff0000;" parent="0seIgQq63aaIaXHRIy1Y-1" vertex="1">
                    <mxGeometry x="415" y="220" width="30" height="30" as="geometry"/>
                </mxCell>
                <mxCell id="ccGdNwGzbi4KVBCMrRUp-0" value="&lt;div&gt;&lt;span&gt;Submit&lt;/span&gt;&lt;/div&gt;" style="html=1;align=center;verticalAlign=top;rounded=1;absoluteArcSize=1;arcSize=10;dashed=0;whiteSpace=wrap;" parent="0seIgQq63aaIaXHRIy1Y-1" vertex="1">
                    <mxGeometry x="230" y="640" width="100" height="40" as="geometry"/>
                </mxCell>
                <mxCell id="ccGdNwGzbi4KVBCMrRUp-1" style="edgeStyle=orthogonalEdgeStyle;jumpStyle=none;html=1;strokeColor=#FF0000;" parent="0seIgQq63aaIaXHRIy1Y-1" source="Bwn4bMFjbtTnJMb2X8sI-22" target="ccGdNwGzbi4KVBCMrRUp-0" edge="1">
                    <mxGeometry relative="1" as="geometry">
                        <Array as="points"/>
                        <mxPoint x="290" y="690" as="sourcePoint"/>
                        <mxPoint x="290" y="730" as="targetPoint"/>
                    </mxGeometry>
                </mxCell>
                <mxCell id="ccGdNwGzbi4KVBCMrRUp-2" value="&lt;div&gt;&lt;span&gt;Submit&lt;/span&gt;&lt;/div&gt;" style="html=1;align=center;verticalAlign=top;rounded=1;absoluteArcSize=1;arcSize=10;dashed=0;whiteSpace=wrap;" parent="0seIgQq63aaIaXHRIy1Y-1" vertex="1">
                    <mxGeometry x="380" y="640" width="100" height="40" as="geometry"/>
                </mxCell>
                <mxCell id="ccGdNwGzbi4KVBCMrRUp-5" style="edgeStyle=orthogonalEdgeStyle;jumpStyle=none;html=1;strokeColor=#FF0000;" parent="0seIgQq63aaIaXHRIy1Y-1" source="ccGdNwGzbi4KVBCMrRUp-2" target="Bwn4bMFjbtTnJMb2X8sI-33" edge="1">
                    <mxGeometry relative="1" as="geometry">
                        <mxPoint x="440" y="610" as="sourcePoint"/>
                        <mxPoint x="440" y="650" as="targetPoint"/>
                    </mxGeometry>
                </mxCell>
            </root>
        </mxGraphModel>
    </diagram>
    <diagram id="i7hBNW_fXZtEZBrlmvH7" name="Shipper">
        <mxGraphModel dx="1171" dy="797" grid="0" gridSize="10" guides="1" tooltips="1" connect="1" arrows="1" fold="1" page="1" pageScale="1" pageWidth="850" pageHeight="1100" math="0" shadow="0">
            <root>
                <mxCell id="0qAauWnGgnmqBkKH7IQ--0"/>
                <mxCell id="0qAauWnGgnmqBkKH7IQ--1" parent="0qAauWnGgnmqBkKH7IQ--0"/>
                <mxCell id="d9ceJqKgXobZ_4TKfs4I-0" value="" style="edgeStyle=orthogonalEdgeStyle;html=1;verticalAlign=bottom;endArrow=open;endSize=8;strokeColor=#ff0000;" parent="0qAauWnGgnmqBkKH7IQ--1" target="d9ceJqKgXobZ_4TKfs4I-2" edge="1">
                    <mxGeometry relative="1" as="geometry">
                        <mxPoint x="535" y="285" as="targetPoint"/>
                        <mxPoint x="510" y="255" as="sourcePoint"/>
                        <Array as="points">
                            <mxPoint x="510" y="230"/>
                            <mxPoint x="510" y="230"/>
                        </Array>
                    </mxGeometry>
                </mxCell>
                <mxCell id="d9ceJqKgXobZ_4TKfs4I-1" style="edgeStyle=none;html=1;" parent="0qAauWnGgnmqBkKH7IQ--1" source="d9ceJqKgXobZ_4TKfs4I-2" target="d9ceJqKgXobZ_4TKfs4I-3" edge="1">
                    <mxGeometry relative="1" as="geometry"/>
                </mxCell>
                <mxCell id="d9ceJqKgXobZ_4TKfs4I-2" value="&lt;div&gt;&lt;span&gt;Login&lt;/span&gt;&lt;/div&gt;" style="html=1;align=center;verticalAlign=top;rounded=1;absoluteArcSize=1;arcSize=10;dashed=0;whiteSpace=wrap;" parent="0qAauWnGgnmqBkKH7IQ--1" vertex="1">
                    <mxGeometry x="460" y="280" width="100" height="40" as="geometry"/>
                </mxCell>
                <mxCell id="d9ceJqKgXobZ_4TKfs4I-3" value="Authenticated" style="rhombus;whiteSpace=wrap;html=1;fillColor=#ffffc0;strokeColor=#ff0000;" parent="0qAauWnGgnmqBkKH7IQ--1" vertex="1">
                    <mxGeometry x="460" y="340" width="100" height="60" as="geometry"/>
                </mxCell>
                <mxCell id="d9ceJqKgXobZ_4TKfs4I-4" value="no" style="edgeStyle=orthogonalEdgeStyle;html=1;align=left;verticalAlign=bottom;endArrow=open;endSize=8;strokeColor=#ff0000;entryX=1;entryY=0.5;entryDx=0;entryDy=0;" parent="0qAauWnGgnmqBkKH7IQ--1" source="d9ceJqKgXobZ_4TKfs4I-3" target="d9ceJqKgXobZ_4TKfs4I-2" edge="1">
                    <mxGeometry x="-1" relative="1" as="geometry">
                        <mxPoint x="635" y="415" as="targetPoint"/>
                        <Array as="points">
                            <mxPoint x="590" y="370"/>
                            <mxPoint x="590" y="300"/>
                        </Array>
                    </mxGeometry>
                </mxCell>
                <mxCell id="d9ceJqKgXobZ_4TKfs4I-5" value="yes" style="edgeStyle=orthogonalEdgeStyle;html=1;align=left;verticalAlign=top;endArrow=open;endSize=8;strokeColor=#ff0000;" parent="0qAauWnGgnmqBkKH7IQ--1" source="d9ceJqKgXobZ_4TKfs4I-3" target="d9ceJqKgXobZ_4TKfs4I-8" edge="1">
                    <mxGeometry x="-1" relative="1" as="geometry">
                        <mxPoint x="540" y="420" as="targetPoint"/>
                        <Array as="points"/>
                    </mxGeometry>
                </mxCell>
                <mxCell id="d9ceJqKgXobZ_4TKfs4I-6" style="edgeStyle=orthogonalEdgeStyle;jumpStyle=none;html=1;strokeColor=#FF0000;" parent="0qAauWnGgnmqBkKH7IQ--1" source="d9ceJqKgXobZ_4TKfs4I-8" target="d9ceJqKgXobZ_4TKfs4I-13" edge="1">
                    <mxGeometry relative="1" as="geometry"/>
                </mxCell>
                <mxCell id="d9ceJqKgXobZ_4TKfs4I-8" value="" style="shape=line;html=1;strokeWidth=6;strokeColor=#ff0000;" parent="0qAauWnGgnmqBkKH7IQ--1" vertex="1">
                    <mxGeometry x="410" y="430" width="200" height="10" as="geometry"/>
                </mxCell>
                <mxCell id="d9ceJqKgXobZ_4TKfs4I-9" value="" style="edgeStyle=orthogonalEdgeStyle;html=1;verticalAlign=bottom;endArrow=open;endSize=8;strokeColor=#ff0000;jumpStyle=none;" parent="0qAauWnGgnmqBkKH7IQ--1" source="d9ceJqKgXobZ_4TKfs4I-8" target="d9ceJqKgXobZ_4TKfs4I-11" edge="1">
                    <mxGeometry relative="1" as="geometry">
                        <mxPoint x="510" y="535" as="targetPoint"/>
                        <Array as="points">
                            <mxPoint x="510" y="460"/>
                            <mxPoint x="220" y="460"/>
                        </Array>
                    </mxGeometry>
                </mxCell>
                <mxCell id="d9ceJqKgXobZ_4TKfs4I-10" style="edgeStyle=orthogonalEdgeStyle;html=1;strokeColor=#FF0000;" parent="0qAauWnGgnmqBkKH7IQ--1" source="d9ceJqKgXobZ_4TKfs4I-11" target="d9ceJqKgXobZ_4TKfs4I-17" edge="1">
                    <mxGeometry relative="1" as="geometry"/>
                </mxCell>
                <mxCell id="d9ceJqKgXobZ_4TKfs4I-11" value="List pending Order" style="rounded=1;whiteSpace=wrap;html=1;arcSize=40;fontColor=#000000;fillColor=#ffffc0;strokeColor=#ff0000;" parent="0qAauWnGgnmqBkKH7IQ--1" vertex="1">
                    <mxGeometry x="170" y="480" width="100" height="40" as="geometry"/>
                </mxCell>
                <mxCell id="d9ceJqKgXobZ_4TKfs4I-12" style="edgeStyle=orthogonalEdgeStyle;jumpStyle=none;html=1;strokeColor=#FF0000;" parent="0qAauWnGgnmqBkKH7IQ--1" source="d9ceJqKgXobZ_4TKfs4I-13" target="d9ceJqKgXobZ_4TKfs4I-19" edge="1">
                    <mxGeometry relative="1" as="geometry">
                        <Array as="points">
                            <mxPoint x="510" y="560"/>
                            <mxPoint x="510" y="560"/>
                        </Array>
                    </mxGeometry>
                </mxCell>
                <mxCell id="d9ceJqKgXobZ_4TKfs4I-13" value="Manage my order" style="rounded=1;whiteSpace=wrap;html=1;arcSize=40;fontColor=#000000;fillColor=#ffffc0;strokeColor=#ff0000;" parent="0qAauWnGgnmqBkKH7IQ--1" vertex="1">
                    <mxGeometry x="460" y="480" width="100" height="40" as="geometry"/>
                </mxCell>
                <mxCell id="d9ceJqKgXobZ_4TKfs4I-16" style="edgeStyle=orthogonalEdgeStyle;jumpStyle=none;html=1;strokeColor=#FF0000;" parent="0qAauWnGgnmqBkKH7IQ--1" source="d9ceJqKgXobZ_4TKfs4I-17" target="d9ceJqKgXobZ_4TKfs4I-20" edge="1">
                    <mxGeometry relative="1" as="geometry">
                        <Array as="points">
                            <mxPoint x="220" y="660"/>
                        </Array>
                    </mxGeometry>
                </mxCell>
                <mxCell id="d9ceJqKgXobZ_4TKfs4I-17" value="&lt;div&gt;&lt;span&gt;Check orders&lt;/span&gt;&lt;/div&gt;" style="html=1;align=center;verticalAlign=top;rounded=1;absoluteArcSize=1;arcSize=10;dashed=0;whiteSpace=wrap;" parent="0qAauWnGgnmqBkKH7IQ--1" vertex="1">
                    <mxGeometry x="170" y="560" width="100" height="40" as="geometry"/>
                </mxCell>
                <mxCell id="d9ceJqKgXobZ_4TKfs4I-18" style="edgeStyle=orthogonalEdgeStyle;jumpStyle=none;html=1;strokeColor=#FF0000;" parent="0qAauWnGgnmqBkKH7IQ--1" source="d9ceJqKgXobZ_4TKfs4I-19" target="d9ceJqKgXobZ_4TKfs4I-23" edge="1">
                    <mxGeometry relative="1" as="geometry">
                        <Array as="points">
                            <mxPoint x="510" y="600"/>
                            <mxPoint x="510" y="600"/>
                        </Array>
                    </mxGeometry>
                </mxCell>
                <mxCell id="d9ceJqKgXobZ_4TKfs4I-19" value="Show QR to Shipper" style="html=1;align=center;verticalAlign=top;rounded=1;absoluteArcSize=1;arcSize=10;dashed=0;whiteSpace=wrap;" parent="0qAauWnGgnmqBkKH7IQ--1" vertex="1">
                    <mxGeometry x="460" y="560" width="100" height="40" as="geometry"/>
                </mxCell>
                <mxCell id="d9ceJqKgXobZ_4TKfs4I-20" value="Validated" style="rhombus;whiteSpace=wrap;html=1;fillColor=#ffffc0;strokeColor=#ff0000;" parent="0qAauWnGgnmqBkKH7IQ--1" vertex="1">
                    <mxGeometry x="180" y="720" width="80" height="40" as="geometry"/>
                </mxCell>
                <mxCell id="d9ceJqKgXobZ_4TKfs4I-21" value="no" style="edgeStyle=orthogonalEdgeStyle;html=1;align=left;verticalAlign=bottom;endArrow=open;endSize=8;strokeColor=#ff0000;jumpStyle=none;" parent="0qAauWnGgnmqBkKH7IQ--1" source="d9ceJqKgXobZ_4TKfs4I-20" target="d9ceJqKgXobZ_4TKfs4I-11" edge="1">
                    <mxGeometry x="-1" relative="1" as="geometry">
                        <mxPoint x="160" y="685" as="targetPoint"/>
                        <Array as="points">
                            <mxPoint x="300" y="660"/>
                            <mxPoint x="300" y="500"/>
                        </Array>
                    </mxGeometry>
                </mxCell>
                <mxCell id="d9ceJqKgXobZ_4TKfs4I-22" value="yes" style="edgeStyle=orthogonalEdgeStyle;html=1;align=left;verticalAlign=top;endArrow=open;endSize=8;strokeColor=#ff0000;jumpStyle=none;entryX=0.25;entryY=0.5;entryDx=0;entryDy=0;entryPerimeter=0;" parent="0qAauWnGgnmqBkKH7IQ--1" source="d9ceJqKgXobZ_4TKfs4I-20" target="d9ceJqKgXobZ_4TKfs4I-26" edge="1">
                    <mxGeometry x="-1" relative="1" as="geometry">
                        <mxPoint x="110" y="765" as="targetPoint"/>
                        <Array as="points">
                            <mxPoint x="460" y="750"/>
                        </Array>
                    </mxGeometry>
                </mxCell>
                <mxCell id="d9ceJqKgXobZ_4TKfs4I-23" value="Validated" style="rhombus;whiteSpace=wrap;html=1;fillColor=#ffffc0;strokeColor=#ff0000;" parent="0qAauWnGgnmqBkKH7IQ--1" vertex="1">
                    <mxGeometry x="470" y="640" width="80" height="40" as="geometry"/>
                </mxCell>
                <mxCell id="d9ceJqKgXobZ_4TKfs4I-24" value="no" style="edgeStyle=orthogonalEdgeStyle;html=1;align=left;verticalAlign=bottom;endArrow=open;endSize=8;strokeColor=#ff0000;jumpStyle=none;" parent="0qAauWnGgnmqBkKH7IQ--1" source="d9ceJqKgXobZ_4TKfs4I-23" target="d9ceJqKgXobZ_4TKfs4I-13" edge="1">
                    <mxGeometry x="-1" relative="1" as="geometry">
                        <mxPoint x="620" y="665" as="targetPoint"/>
                        <Array as="points">
                            <mxPoint x="720" y="660"/>
                            <mxPoint x="720" y="500"/>
                        </Array>
                    </mxGeometry>
                </mxCell>
                <mxCell id="d9ceJqKgXobZ_4TKfs4I-25" value="yes" style="edgeStyle=orthogonalEdgeStyle;html=1;align=left;verticalAlign=top;endArrow=open;endSize=8;strokeColor=#ff0000;jumpStyle=none;entryX=0.496;entryY=0.6;entryDx=0;entryDy=0;entryPerimeter=0;" parent="0qAauWnGgnmqBkKH7IQ--1" source="d9ceJqKgXobZ_4TKfs4I-23" target="d9ceJqKgXobZ_4TKfs4I-26" edge="1">
                    <mxGeometry x="-1" relative="1" as="geometry">
                        <mxPoint x="480" y="745" as="targetPoint"/>
                        <Array as="points">
                            <mxPoint x="510" y="765"/>
                            <mxPoint x="509" y="765"/>
                        </Array>
                    </mxGeometry>
                </mxCell>
                <mxCell id="d9ceJqKgXobZ_4TKfs4I-26" value="" style="shape=line;html=1;strokeWidth=6;strokeColor=#ff0000;" parent="0qAauWnGgnmqBkKH7IQ--1" vertex="1">
                    <mxGeometry x="410" y="780" width="200" height="10" as="geometry"/>
                </mxCell>
                <mxCell id="d9ceJqKgXobZ_4TKfs4I-27" value="" style="edgeStyle=orthogonalEdgeStyle;html=1;verticalAlign=bottom;endArrow=open;endSize=8;strokeColor=#ff0000;jumpStyle=none;" parent="0qAauWnGgnmqBkKH7IQ--1" source="d9ceJqKgXobZ_4TKfs4I-26" target="d9ceJqKgXobZ_4TKfs4I-28" edge="1">
                    <mxGeometry relative="1" as="geometry">
                        <mxPoint x="450" y="835" as="targetPoint"/>
                    </mxGeometry>
                </mxCell>
                <mxCell id="d9ceJqKgXobZ_4TKfs4I-28" value="" style="ellipse;html=1;shape=endState;fillColor=#000000;strokeColor=#ff0000;" parent="0qAauWnGgnmqBkKH7IQ--1" vertex="1">
                    <mxGeometry x="495" y="840" width="30" height="30" as="geometry"/>
                </mxCell>
                <mxCell id="d9ceJqKgXobZ_4TKfs4I-31" value="" style="ellipse;html=1;shape=startState;fillColor=#000000;strokeColor=#ff0000;" parent="0qAauWnGgnmqBkKH7IQ--1" vertex="1">
                    <mxGeometry x="495" y="220" width="30" height="30" as="geometry"/>
                </mxCell>
                <mxCell id="hcdD2kBzh9FdffLLMvZN-0" value="&lt;div&gt;&lt;span&gt;Submit&lt;/span&gt;&lt;/div&gt;" style="html=1;align=center;verticalAlign=top;rounded=1;absoluteArcSize=1;arcSize=10;dashed=0;whiteSpace=wrap;" parent="0qAauWnGgnmqBkKH7IQ--1" vertex="1">
                    <mxGeometry x="170" y="640" width="100" height="40" as="geometry"/>
                </mxCell>
                <mxCell id="EtcIvvAhZeQ3JQ1QuYVf-0" value="Change Order progress" style="html=1;align=center;verticalAlign=top;rounded=1;absoluteArcSize=1;arcSize=10;dashed=0;whiteSpace=wrap;" parent="0qAauWnGgnmqBkKH7IQ--1" vertex="1">
                    <mxGeometry x="600" y="560" width="100" height="40" as="geometry"/>
                </mxCell>
                <mxCell id="EtcIvvAhZeQ3JQ1QuYVf-2" style="edgeStyle=orthogonalEdgeStyle;jumpStyle=none;html=1;strokeColor=#FF0000;" parent="0qAauWnGgnmqBkKH7IQ--1" source="d9ceJqKgXobZ_4TKfs4I-13" target="EtcIvvAhZeQ3JQ1QuYVf-0" edge="1">
                    <mxGeometry relative="1" as="geometry">
                        <mxPoint x="520" y="530" as="sourcePoint"/>
                        <mxPoint x="460" y="570" as="targetPoint"/>
                        <Array as="points">
                            <mxPoint x="510" y="540"/>
                            <mxPoint x="650" y="540"/>
                        </Array>
                    </mxGeometry>
                </mxCell>
                <mxCell id="EtcIvvAhZeQ3JQ1QuYVf-3" style="edgeStyle=orthogonalEdgeStyle;jumpStyle=none;html=1;strokeColor=#FF0000;" parent="0qAauWnGgnmqBkKH7IQ--1" source="EtcIvvAhZeQ3JQ1QuYVf-0" target="d9ceJqKgXobZ_4TKfs4I-23" edge="1">
                    <mxGeometry relative="1" as="geometry">
                        <mxPoint x="460" y="610" as="sourcePoint"/>
                        <mxPoint x="540" y="640" as="targetPoint"/>
                        <Array as="points">
                            <mxPoint x="650" y="620"/>
                            <mxPoint x="510" y="620"/>
                        </Array>
                    </mxGeometry>
                </mxCell>
                <mxCell id="EtcIvvAhZeQ3JQ1QuYVf-4" value="View List Item or specific Order" style="html=1;align=center;verticalAlign=top;rounded=1;absoluteArcSize=1;arcSize=10;dashed=0;whiteSpace=wrap;" parent="0qAauWnGgnmqBkKH7IQ--1" vertex="1">
                    <mxGeometry x="325" y="560" width="100" height="40" as="geometry"/>
                </mxCell>
                <mxCell id="EtcIvvAhZeQ3JQ1QuYVf-5" style="edgeStyle=orthogonalEdgeStyle;jumpStyle=none;html=1;strokeColor=#FF0000;" parent="0qAauWnGgnmqBkKH7IQ--1" source="d9ceJqKgXobZ_4TKfs4I-13" target="EtcIvvAhZeQ3JQ1QuYVf-4" edge="1">
                    <mxGeometry relative="1" as="geometry">
                        <mxPoint x="520" y="530" as="sourcePoint"/>
                        <mxPoint x="660" y="570" as="targetPoint"/>
                        <Array as="points">
                            <mxPoint x="510" y="540"/>
                            <mxPoint x="375" y="540"/>
                        </Array>
                    </mxGeometry>
                </mxCell>
                <mxCell id="EtcIvvAhZeQ3JQ1QuYVf-6" style="edgeStyle=orthogonalEdgeStyle;jumpStyle=none;html=1;strokeColor=#FF0000;" parent="0qAauWnGgnmqBkKH7IQ--1" source="EtcIvvAhZeQ3JQ1QuYVf-4" target="d9ceJqKgXobZ_4TKfs4I-26" edge="1">
                    <mxGeometry relative="1" as="geometry">
                        <mxPoint x="520" y="530" as="sourcePoint"/>
                        <mxPoint x="520" y="570" as="targetPoint"/>
                        <Array as="points">
                            <mxPoint x="375" y="750"/>
                            <mxPoint x="490" y="750"/>
                        </Array>
                    </mxGeometry>
                </mxCell>
            </root>
        </mxGraphModel>
    </diagram>
    <diagram id="XPgc6mBVsCENCnKGoXBV" name="Seller">
        <mxGraphModel dx="1171" dy="797" grid="0" gridSize="10" guides="1" tooltips="1" connect="1" arrows="1" fold="1" page="1" pageScale="1" pageWidth="850" pageHeight="1100" math="0" shadow="0">
            <root>
                <mxCell id="RHxv7_o2DlTEZmWOSbdi-0"/>
                <mxCell id="RHxv7_o2DlTEZmWOSbdi-1" parent="RHxv7_o2DlTEZmWOSbdi-0"/>
                <mxCell id="HT0GA-SVdr0LG66HuQmF-0" value="" style="edgeStyle=orthogonalEdgeStyle;html=1;verticalAlign=bottom;endArrow=open;endSize=8;strokeColor=#ff0000;" parent="RHxv7_o2DlTEZmWOSbdi-1" target="HT0GA-SVdr0LG66HuQmF-2" edge="1">
                    <mxGeometry relative="1" as="geometry">
                        <mxPoint x="535" y="285" as="targetPoint"/>
                        <mxPoint x="510" y="255" as="sourcePoint"/>
                        <Array as="points">
                            <mxPoint x="510" y="230"/>
                            <mxPoint x="510" y="230"/>
                        </Array>
                    </mxGeometry>
                </mxCell>
                <mxCell id="HT0GA-SVdr0LG66HuQmF-1" style="edgeStyle=none;html=1;" parent="RHxv7_o2DlTEZmWOSbdi-1" source="HT0GA-SVdr0LG66HuQmF-2" target="HT0GA-SVdr0LG66HuQmF-3" edge="1">
                    <mxGeometry relative="1" as="geometry"/>
                </mxCell>
                <mxCell id="HT0GA-SVdr0LG66HuQmF-2" value="&lt;div&gt;&lt;span&gt;Login&lt;/span&gt;&lt;/div&gt;" style="html=1;align=center;verticalAlign=top;rounded=1;absoluteArcSize=1;arcSize=10;dashed=0;whiteSpace=wrap;" parent="RHxv7_o2DlTEZmWOSbdi-1" vertex="1">
                    <mxGeometry x="460" y="280" width="100" height="40" as="geometry"/>
                </mxCell>
                <mxCell id="HT0GA-SVdr0LG66HuQmF-3" value="Authenticated" style="rhombus;whiteSpace=wrap;html=1;fillColor=#ffffc0;strokeColor=#ff0000;" parent="RHxv7_o2DlTEZmWOSbdi-1" vertex="1">
                    <mxGeometry x="460" y="340" width="100" height="60" as="geometry"/>
                </mxCell>
                <mxCell id="HT0GA-SVdr0LG66HuQmF-4" value="no" style="edgeStyle=orthogonalEdgeStyle;html=1;align=left;verticalAlign=bottom;endArrow=open;endSize=8;strokeColor=#ff0000;entryX=1;entryY=0.5;entryDx=0;entryDy=0;" parent="RHxv7_o2DlTEZmWOSbdi-1" source="HT0GA-SVdr0LG66HuQmF-3" target="HT0GA-SVdr0LG66HuQmF-2" edge="1">
                    <mxGeometry x="-1" relative="1" as="geometry">
                        <mxPoint x="635" y="415" as="targetPoint"/>
                        <Array as="points">
                            <mxPoint x="590" y="370"/>
                            <mxPoint x="590" y="300"/>
                        </Array>
                    </mxGeometry>
                </mxCell>
                <mxCell id="HT0GA-SVdr0LG66HuQmF-5" value="yes" style="edgeStyle=orthogonalEdgeStyle;html=1;align=left;verticalAlign=top;endArrow=open;endSize=8;strokeColor=#ff0000;" parent="RHxv7_o2DlTEZmWOSbdi-1" source="HT0GA-SVdr0LG66HuQmF-3" target="HT0GA-SVdr0LG66HuQmF-7" edge="1">
                    <mxGeometry x="-1" relative="1" as="geometry">
                        <mxPoint x="540" y="420" as="targetPoint"/>
                        <Array as="points"/>
                    </mxGeometry>
                </mxCell>
                <mxCell id="HT0GA-SVdr0LG66HuQmF-6" style="edgeStyle=orthogonalEdgeStyle;jumpStyle=none;html=1;strokeColor=#FF0000;" parent="RHxv7_o2DlTEZmWOSbdi-1" source="HT0GA-SVdr0LG66HuQmF-7" target="HT0GA-SVdr0LG66HuQmF-12" edge="1">
                    <mxGeometry relative="1" as="geometry"/>
                </mxCell>
                <mxCell id="HT0GA-SVdr0LG66HuQmF-7" value="" style="shape=line;html=1;strokeWidth=6;strokeColor=#ff0000;" parent="RHxv7_o2DlTEZmWOSbdi-1" vertex="1">
                    <mxGeometry x="410" y="430" width="200" height="10" as="geometry"/>
                </mxCell>
                <mxCell id="HT0GA-SVdr0LG66HuQmF-8" value="" style="edgeStyle=orthogonalEdgeStyle;html=1;verticalAlign=bottom;endArrow=open;endSize=8;strokeColor=#ff0000;jumpStyle=none;" parent="RHxv7_o2DlTEZmWOSbdi-1" source="HT0GA-SVdr0LG66HuQmF-7" target="HT0GA-SVdr0LG66HuQmF-10" edge="1">
                    <mxGeometry relative="1" as="geometry">
                        <mxPoint x="510" y="535" as="targetPoint"/>
                        <Array as="points">
                            <mxPoint x="510" y="460"/>
                            <mxPoint x="240" y="460"/>
                        </Array>
                    </mxGeometry>
                </mxCell>
                <mxCell id="HT0GA-SVdr0LG66HuQmF-10" value="Dashboard" style="rounded=1;whiteSpace=wrap;html=1;arcSize=40;fontColor=#000000;fillColor=#ffffc0;strokeColor=#ff0000;" parent="RHxv7_o2DlTEZmWOSbdi-1" vertex="1">
                    <mxGeometry x="190" y="480" width="100" height="40" as="geometry"/>
                </mxCell>
                <mxCell id="HT0GA-SVdr0LG66HuQmF-11" style="edgeStyle=orthogonalEdgeStyle;jumpStyle=none;html=1;strokeColor=#FF0000;" parent="RHxv7_o2DlTEZmWOSbdi-1" source="HT0GA-SVdr0LG66HuQmF-12" target="HT0GA-SVdr0LG66HuQmF-16" edge="1">
                    <mxGeometry relative="1" as="geometry">
                        <Array as="points">
                            <mxPoint x="510" y="560"/>
                            <mxPoint x="510" y="560"/>
                        </Array>
                    </mxGeometry>
                </mxCell>
                <mxCell id="HT0GA-SVdr0LG66HuQmF-12" value="View today orders" style="rounded=1;whiteSpace=wrap;html=1;arcSize=40;fontColor=#000000;fillColor=#ffffc0;strokeColor=#ff0000;" parent="RHxv7_o2DlTEZmWOSbdi-1" vertex="1">
                    <mxGeometry x="460" y="480" width="100" height="40" as="geometry"/>
                </mxCell>
                <mxCell id="HT0GA-SVdr0LG66HuQmF-13" style="edgeStyle=orthogonalEdgeStyle;jumpStyle=none;html=1;strokeColor=#FF0000;entryX=0.25;entryY=0.5;entryDx=0;entryDy=0;entryPerimeter=0;" parent="RHxv7_o2DlTEZmWOSbdi-1" source="HT0GA-SVdr0LG66HuQmF-40" target="HT0GA-SVdr0LG66HuQmF-23" edge="1">
                    <mxGeometry relative="1" as="geometry">
                        <Array as="points">
                            <mxPoint x="240" y="820"/>
                            <mxPoint x="460" y="820"/>
                        </Array>
                        <mxPoint x="220.0588235294117" y="600" as="sourcePoint"/>
                        <mxPoint x="220.0588235294117" y="800.0294117647059" as="targetPoint"/>
                    </mxGeometry>
                </mxCell>
                <mxCell id="HT0GA-SVdr0LG66HuQmF-16" value="Scan QR" style="html=1;align=center;verticalAlign=top;rounded=1;absoluteArcSize=1;arcSize=10;dashed=0;whiteSpace=wrap;" parent="RHxv7_o2DlTEZmWOSbdi-1" vertex="1">
                    <mxGeometry x="460" y="560" width="100" height="40" as="geometry"/>
                </mxCell>
                <mxCell id="HT0GA-SVdr0LG66HuQmF-20" value="Validated" style="rhombus;whiteSpace=wrap;html=1;fillColor=#ffffc0;strokeColor=#ff0000;" parent="RHxv7_o2DlTEZmWOSbdi-1" vertex="1">
                    <mxGeometry x="470" y="800" width="80" height="40" as="geometry"/>
                </mxCell>
                <mxCell id="HT0GA-SVdr0LG66HuQmF-21" value="no" style="edgeStyle=orthogonalEdgeStyle;html=1;align=left;verticalAlign=bottom;endArrow=open;endSize=8;strokeColor=#ff0000;jumpStyle=none;" parent="RHxv7_o2DlTEZmWOSbdi-1" source="HT0GA-SVdr0LG66HuQmF-20" target="HT0GA-SVdr0LG66HuQmF-34" edge="1">
                    <mxGeometry x="-1" relative="1" as="geometry">
                        <mxPoint x="620" y="665" as="targetPoint"/>
                        <Array as="points">
                            <mxPoint x="720" y="820"/>
                            <mxPoint x="720" y="660"/>
                        </Array>
                    </mxGeometry>
                </mxCell>
                <mxCell id="HT0GA-SVdr0LG66HuQmF-22" value="yes" style="edgeStyle=orthogonalEdgeStyle;html=1;align=left;verticalAlign=top;endArrow=open;endSize=8;strokeColor=#ff0000;jumpStyle=none;entryX=0.496;entryY=0.6;entryDx=0;entryDy=0;entryPerimeter=0;" parent="RHxv7_o2DlTEZmWOSbdi-1" source="HT0GA-SVdr0LG66HuQmF-20" target="HT0GA-SVdr0LG66HuQmF-23" edge="1">
                    <mxGeometry x="-1" relative="1" as="geometry">
                        <mxPoint x="480" y="825" as="targetPoint"/>
                        <Array as="points">
                            <mxPoint x="510" y="845"/>
                            <mxPoint x="509" y="845"/>
                        </Array>
                    </mxGeometry>
                </mxCell>
                <mxCell id="HT0GA-SVdr0LG66HuQmF-23" value="" style="shape=line;html=1;strokeWidth=6;strokeColor=#ff0000;" parent="RHxv7_o2DlTEZmWOSbdi-1" vertex="1">
                    <mxGeometry x="410" y="860" width="200" height="10" as="geometry"/>
                </mxCell>
                <mxCell id="HT0GA-SVdr0LG66HuQmF-24" value="" style="edgeStyle=orthogonalEdgeStyle;html=1;verticalAlign=bottom;endArrow=open;endSize=8;strokeColor=#ff0000;jumpStyle=none;" parent="RHxv7_o2DlTEZmWOSbdi-1" source="HT0GA-SVdr0LG66HuQmF-23" target="HT0GA-SVdr0LG66HuQmF-25" edge="1">
                    <mxGeometry relative="1" as="geometry">
                        <mxPoint x="450" y="915" as="targetPoint"/>
                    </mxGeometry>
                </mxCell>
                <mxCell id="HT0GA-SVdr0LG66HuQmF-25" value="" style="ellipse;html=1;shape=endState;fillColor=#000000;strokeColor=#ff0000;" parent="RHxv7_o2DlTEZmWOSbdi-1" vertex="1">
                    <mxGeometry x="495" y="920" width="30" height="30" as="geometry"/>
                </mxCell>
                <mxCell id="HT0GA-SVdr0LG66HuQmF-26" value="" style="ellipse;html=1;shape=startState;fillColor=#000000;strokeColor=#ff0000;" parent="RHxv7_o2DlTEZmWOSbdi-1" vertex="1">
                    <mxGeometry x="495" y="220" width="30" height="30" as="geometry"/>
                </mxCell>
                <mxCell id="HT0GA-SVdr0LG66HuQmF-31" value="View List Item of specific Order" style="html=1;align=center;verticalAlign=top;rounded=1;absoluteArcSize=1;arcSize=10;dashed=0;whiteSpace=wrap;" parent="RHxv7_o2DlTEZmWOSbdi-1" vertex="1">
                    <mxGeometry x="325" y="560" width="100" height="40" as="geometry"/>
                </mxCell>
                <mxCell id="HT0GA-SVdr0LG66HuQmF-32" style="edgeStyle=orthogonalEdgeStyle;jumpStyle=none;html=1;strokeColor=#FF0000;" parent="RHxv7_o2DlTEZmWOSbdi-1" source="HT0GA-SVdr0LG66HuQmF-12" target="HT0GA-SVdr0LG66HuQmF-31" edge="1">
                    <mxGeometry relative="1" as="geometry">
                        <mxPoint x="520" y="530" as="sourcePoint"/>
                        <mxPoint x="660" y="570" as="targetPoint"/>
                        <Array as="points">
                            <mxPoint x="510" y="540"/>
                            <mxPoint x="375" y="540"/>
                        </Array>
                    </mxGeometry>
                </mxCell>
                <mxCell id="HT0GA-SVdr0LG66HuQmF-33" style="edgeStyle=orthogonalEdgeStyle;jumpStyle=none;html=1;strokeColor=#FF0000;" parent="RHxv7_o2DlTEZmWOSbdi-1" source="HT0GA-SVdr0LG66HuQmF-31" target="HT0GA-SVdr0LG66HuQmF-23" edge="1">
                    <mxGeometry relative="1" as="geometry">
                        <mxPoint x="520" y="530" as="sourcePoint"/>
                        <mxPoint x="520" y="570" as="targetPoint"/>
                        <Array as="points">
                            <mxPoint x="375" y="820"/>
                            <mxPoint x="460" y="820"/>
                        </Array>
                    </mxGeometry>
                </mxCell>
                <mxCell id="HT0GA-SVdr0LG66HuQmF-34" value="Check Items from Scanned Order" style="html=1;align=center;verticalAlign=top;rounded=1;absoluteArcSize=1;arcSize=10;dashed=0;whiteSpace=wrap;" parent="RHxv7_o2DlTEZmWOSbdi-1" vertex="1">
                    <mxGeometry x="460" y="640" width="100" height="40" as="geometry"/>
                </mxCell>
                <mxCell id="HT0GA-SVdr0LG66HuQmF-35" value="Submit" style="html=1;align=center;verticalAlign=top;rounded=1;absoluteArcSize=1;arcSize=10;dashed=0;whiteSpace=wrap;" parent="RHxv7_o2DlTEZmWOSbdi-1" vertex="1">
                    <mxGeometry x="460" y="720" width="100" height="40" as="geometry"/>
                </mxCell>
                <mxCell id="HT0GA-SVdr0LG66HuQmF-36" style="edgeStyle=orthogonalEdgeStyle;jumpStyle=none;html=1;strokeColor=#FF0000;" parent="RHxv7_o2DlTEZmWOSbdi-1" source="HT0GA-SVdr0LG66HuQmF-16" target="HT0GA-SVdr0LG66HuQmF-34" edge="1">
                    <mxGeometry relative="1" as="geometry">
                        <Array as="points"/>
                        <mxPoint x="520" y="530" as="sourcePoint"/>
                        <mxPoint x="520" y="570" as="targetPoint"/>
                    </mxGeometry>
                </mxCell>
                <mxCell id="HT0GA-SVdr0LG66HuQmF-37" style="edgeStyle=orthogonalEdgeStyle;jumpStyle=none;html=1;strokeColor=#FF0000;" parent="RHxv7_o2DlTEZmWOSbdi-1" source="HT0GA-SVdr0LG66HuQmF-34" target="HT0GA-SVdr0LG66HuQmF-35" edge="1">
                    <mxGeometry relative="1" as="geometry">
                        <Array as="points"/>
                        <mxPoint x="520" y="610" as="sourcePoint"/>
                        <mxPoint x="520" y="650" as="targetPoint"/>
                    </mxGeometry>
                </mxCell>
                <mxCell id="HT0GA-SVdr0LG66HuQmF-39" style="edgeStyle=orthogonalEdgeStyle;jumpStyle=none;html=1;strokeColor=#FF0000;" parent="RHxv7_o2DlTEZmWOSbdi-1" source="HT0GA-SVdr0LG66HuQmF-35" target="HT0GA-SVdr0LG66HuQmF-20" edge="1">
                    <mxGeometry relative="1" as="geometry">
                        <Array as="points"/>
                        <mxPoint x="520" y="690" as="sourcePoint"/>
                        <mxPoint x="520" y="730" as="targetPoint"/>
                    </mxGeometry>
                </mxCell>
                <mxCell id="HT0GA-SVdr0LG66HuQmF-40" value="View List Product and Statistic" style="html=1;align=center;verticalAlign=top;rounded=1;absoluteArcSize=1;arcSize=10;dashed=0;whiteSpace=wrap;" parent="RHxv7_o2DlTEZmWOSbdi-1" vertex="1">
                    <mxGeometry x="190" y="560" width="100" height="40" as="geometry"/>
                </mxCell>
                <mxCell id="HT0GA-SVdr0LG66HuQmF-42" style="edgeStyle=orthogonalEdgeStyle;jumpStyle=none;html=1;strokeColor=#FF0000;" parent="RHxv7_o2DlTEZmWOSbdi-1" source="HT0GA-SVdr0LG66HuQmF-10" target="HT0GA-SVdr0LG66HuQmF-40" edge="1">
                    <mxGeometry relative="1" as="geometry">
                        <Array as="points"/>
                        <mxPoint x="520" y="530" as="sourcePoint"/>
                        <mxPoint x="520" y="570" as="targetPoint"/>
                    </mxGeometry>
                </mxCell>
            </root>
        </mxGraphModel>
    </diagram>
</mxfile>